<svg width="600" height="306" viewBox="0 0 600 306" fill="none" xmlns="http://www.w3.org/2000/svg">
<path d="M82.4534 0H600L517.547 305.592H0L82.4534 0Z" fill="white"/>
<g clip-path="url(#clip0_189_5477)">
<path d="M323.948 254.395C323.927 254.937 323.453 254.874 323.078 254.884C322.698 254.895 322.307 254.847 321.932 254.9C320.973 255.021 320.64 254.6 320.723 253.665C320.775 253.045 320.734 252.414 320.734 251.789H320.739C320.739 251.116 320.723 250.443 320.749 249.765C320.76 249.366 320.609 248.814 321.286 248.804C322.041 248.788 321.895 249.397 321.906 249.844C321.932 250.711 321.937 251.578 321.911 252.446C321.885 253.308 321.968 254.012 323.114 253.87C323.474 253.828 323.969 253.844 323.948 254.395Z" fill="black"/>
<path d="M319.724 254.353C319.734 254.926 319.255 254.847 318.89 254.879C318.609 254.905 318.317 254.853 318.036 254.895C316.89 255.063 316.337 254.653 316.494 253.418C316.562 252.898 316.504 252.361 316.504 251.831C316.504 251.063 316.494 250.296 316.504 249.529C316.509 249.177 316.582 248.835 317.025 248.809C317.536 248.777 317.666 249.119 317.666 249.55C317.676 250.464 317.708 251.379 317.676 252.288C317.64 253.244 317.676 254.064 318.989 253.88C319.317 253.838 319.713 253.896 319.724 254.353Z" fill="black"/>
<path d="M315.362 253.975C315.003 252.483 314.612 250.995 314.253 249.503C314.117 248.925 313.774 248.709 313.138 248.778C312.57 248.646 312.232 248.961 312.086 249.566C311.737 251.016 311.377 252.462 311.033 253.907C310.955 254.259 310.731 254.706 311.309 254.848C311.757 254.958 311.94 254.664 312.159 254.285C312.716 253.297 313.602 253.324 314.227 254.354C314.461 254.748 314.701 254.953 315.128 254.821C315.597 254.674 315.43 254.275 315.362 253.975ZM313.409 252.499C313.268 252.656 312.846 252.625 312.784 252.399C312.575 251.705 312.7 251.053 313.326 250.349C313.409 251.195 314.008 251.826 313.409 252.499Z" fill="black"/>
<path d="M309.769 249.755C309.8 249.235 309.196 248.941 308.633 248.825C306.309 248.341 305.908 248.662 305.893 251.053C305.888 251.295 305.893 251.537 305.893 251.779H305.898C305.898 252.262 305.841 252.751 305.914 253.224C306.013 253.833 305.466 254.743 306.679 254.895C308.451 255.111 309.842 254.685 309.956 253.634C310.081 252.167 309.362 252.02 309.003 251.705C309.805 251.342 309.727 250.407 309.769 249.755ZM307.622 249.766C308.263 249.787 308.675 249.939 308.675 250.475C308.675 251.069 308.232 251.253 307.711 251.279C307.211 251.306 307.075 251.006 307.065 250.559C307.049 250.039 307.237 249.739 307.622 249.766ZM307.951 253.902C307.226 253.965 307.081 253.586 307.065 253.029C307.049 252.493 307.242 252.204 307.784 252.225C308.341 252.241 308.847 252.357 308.831 253.082C308.821 253.713 308.352 253.828 307.951 253.902Z" fill="black"/>
<path d="M304.47 249.766C303.428 249.776 303.558 250.507 303.558 251.179C303.558 252.141 303.548 253.103 303.543 254.065C303.537 254.48 303.485 254.853 302.949 254.853C302.412 254.853 302.396 254.427 302.386 254.044C302.37 253.471 302.381 252.893 302.381 252.225C302.126 251.358 303.058 249.871 301.193 249.618C301.13 249.613 301.052 249.277 301.078 249.109C301.12 248.814 301.396 248.777 301.625 248.777C302.532 248.767 303.438 248.777 304.345 248.783C304.59 248.783 304.824 248.851 304.876 249.145C304.939 249.482 304.808 249.76 304.47 249.766Z" fill="black"/>
<path d="M300.219 251.242C300.146 249.519 299.437 248.741 297.921 248.73C296.384 248.714 295.639 249.477 295.577 251.185C295.556 251.763 295.546 252.346 295.619 252.919C295.801 254.348 296.525 254.953 297.937 254.937C299.552 254.916 300.213 254.065 300.224 251.962C300.224 251.721 300.229 251.479 300.219 251.242ZM298.963 252.83C298.859 253.487 298.468 253.865 297.796 253.828C297.181 253.791 296.853 253.402 296.812 252.803C296.775 252.23 296.791 251.658 296.786 251.085C296.78 250.37 297.062 249.844 297.827 249.813C298.687 249.776 298.968 250.354 299 251.111C299.015 251.348 299.005 251.589 299.005 252.262C299.005 252.336 299 252.583 298.963 252.83Z" fill="black"/>
<path d="M294.608 251.037C294.483 249.44 293.743 248.72 292.258 248.73C290.763 248.735 290.075 249.434 289.981 251.09C289.945 251.668 289.935 252.251 289.997 252.824C290.179 254.616 291.914 255.531 293.482 254.674C294.654 254.033 294.602 252.872 294.613 251.757C294.613 251.516 294.628 251.274 294.613 251.037H294.608ZM292.821 253.697C292.31 253.991 291.784 253.87 291.404 253.392C291.013 252.898 291.065 250.596 291.461 250.17C291.888 249.713 292.43 249.692 292.904 250.007C293.571 250.454 293.347 251.216 293.404 251.873C293.363 252.535 293.529 253.292 292.821 253.697Z" fill="black"/>
<path d="M287.07 250.023C286.898 250.254 286.914 250.669 286.945 250.99C287.013 251.61 287.534 251.484 287.945 251.526C288.305 251.563 288.82 251.431 288.862 251.967C288.919 252.64 288.325 252.551 287.935 252.519C286.945 252.44 286.877 253.024 286.898 253.791C286.903 254.212 287.08 254.868 286.309 254.847C285.57 254.826 285.747 254.201 285.731 253.754C285.7 253.129 285.721 252.503 285.721 251.878C285.721 251.589 285.731 251.3 285.721 251.011C285.669 248.63 285.814 248.499 288.221 248.761C288.596 248.798 289.044 248.756 289.024 249.324C289.003 249.813 288.591 249.739 288.273 249.776C287.857 249.828 287.341 249.639 287.065 250.023H287.07Z" fill="black"/>
<path d="M368.344 242.922C368.344 243.837 367.985 244.1 367.141 244.063C366.041 244.016 364.937 243.989 363.838 244.068C362.744 244.147 362.452 243.706 362.462 242.644C362.515 238.303 362.483 233.956 362.327 229.557C361.686 232.096 361.04 234.634 360.405 237.178C359.951 239.007 359.446 240.82 359.092 242.67C358.873 243.826 358.274 244.326 357.227 244.026C355.909 243.643 353.919 245.219 353.304 242.733C352.319 238.75 351.361 234.761 350.371 230.777C350.272 230.372 350.303 229.899 349.86 229.5V233.168C349.871 236.358 349.85 239.548 349.907 242.739C349.928 243.742 349.616 244.131 348.6 244.068C347.454 243.995 346.302 244.016 345.151 244.063C344.265 244.1 344.005 243.716 344.005 242.859C344.031 235.417 344.036 227.976 344.015 220.534C344.015 219.724 344.276 219.414 345.088 219.43C347.052 219.472 349.017 219.477 350.981 219.425C351.819 219.404 352.142 219.735 352.335 220.534C353.434 225.085 354.58 229.621 355.726 234.161C355.862 234.703 355.867 235.302 356.461 235.975C357.685 230.772 358.878 225.8 360.004 220.812C360.233 219.798 360.608 219.356 361.712 219.414C363.525 219.514 365.349 219.483 367.167 219.43C368.052 219.404 368.339 219.73 368.339 220.597C368.318 228.039 368.318 235.481 368.344 242.922Z" fill="black"/>
<path d="M343.469 242.781C341.838 235.376 340.259 227.96 338.702 220.539C338.509 219.625 338.051 219.409 337.207 219.43C335.003 219.472 332.794 219.509 330.59 219.414C329.476 219.367 329.111 219.824 328.902 220.833C328.262 223.961 327.522 227.061 326.85 230.178C325.928 234.466 325.037 238.766 324.13 243.059H323.802C323.802 242.008 323.771 240.957 323.813 239.906C323.849 239.081 323.505 238.792 322.713 238.813C321.323 238.85 319.932 238.855 318.546 238.818C314.769 238.718 315.457 239.627 315.352 235.344C315.337 234.503 315.691 234.267 316.472 234.283C318.39 234.319 320.307 234.267 322.224 234.304C323.047 234.325 323.479 234.114 323.427 233.179C323.365 232.17 323.38 231.15 323.427 230.136C323.458 229.305 323.099 229.037 322.312 229.064C321.02 229.106 319.723 229.064 318.431 229.064C315.081 229.064 315.107 229.069 315.358 225.627C315.41 224.87 315.696 224.612 316.41 224.628C317.603 224.654 318.801 224.628 319.999 224.628C323.917 224.628 323.886 224.628 323.834 220.634C323.818 219.646 323.474 219.414 322.568 219.425C318.593 219.462 314.613 219.483 310.638 219.414C309.434 219.388 309.106 219.761 309.116 220.965C309.169 228.118 309.174 235.276 309.116 242.429C309.106 243.695 309.445 244.089 310.726 244.074C316.42 244.011 322.109 244.079 327.803 244.032C330.663 244.005 330.2 244.573 330.658 241.577C330.981 239.454 330.965 239.428 333.122 239.465C334.263 239.486 335.644 238.992 336.482 239.68C337.326 240.369 337.055 241.835 337.253 242.96C337.399 243.806 337.754 244.095 338.582 244.058C339.874 244.005 341.166 244.011 342.463 244.047C343.406 244.074 343.703 243.811 343.474 242.776L343.469 242.781ZM333.471 234.509C332.023 234.566 331.799 234.099 332.086 232.774C332.638 230.204 333.028 227.603 333.492 225.012C333.669 225.017 333.846 225.017 334.024 225.017C334.393 226.825 334.774 228.633 335.144 230.441C335.248 230.956 335.336 231.481 335.435 231.996C335.941 234.719 336.295 234.388 333.471 234.509Z" fill="black"/>
<path d="M304.887 224.607C303.641 224.597 303.365 225.054 303.391 226.21C303.464 228.959 303.417 231.713 303.417 234.461C303.417 237.21 303.381 239.969 303.433 242.718C303.454 243.716 303.141 244.121 302.125 244.069C300.932 244 299.734 244.005 298.541 244.069C297.515 244.121 297.239 243.69 297.244 242.707C297.281 237.252 297.228 231.797 297.286 226.341C297.301 225.07 297.03 224.565 295.645 224.597C292.055 224.681 292.102 224.607 292.045 220.986C292.024 219.798 292.337 219.399 293.55 219.415C298.145 219.483 302.74 219.467 307.335 219.425C308.314 219.42 308.653 219.693 308.658 220.728C308.684 224.581 308.721 224.633 304.887 224.607Z" fill="black"/>
<path d="M287.825 244.052C284.808 244.052 281.787 243.979 278.776 244.084C277.348 244.131 276.999 243.632 277.036 242.266C277.124 238.744 277.067 235.218 277.067 231.691C277.062 228.065 277.098 224.444 277.041 220.823C277.025 219.74 277.359 219.404 278.432 219.419C282.402 219.477 286.377 219.467 290.351 219.425C291.284 219.419 291.706 219.609 291.722 220.686C291.794 224.633 291.831 224.633 287.866 224.633C286.72 224.633 285.569 224.675 284.423 224.633C283.579 224.596 283.251 224.87 283.22 225.774C283.105 229.079 283.074 229.079 286.288 229.074C287.58 229.074 288.872 229.095 290.164 229.064C290.935 229.042 291.32 229.289 291.289 230.136C291.242 231.197 291.242 232.259 291.284 233.321C291.315 234.104 290.966 234.314 290.252 234.303C288.341 234.277 286.418 234.351 284.506 234.277C283.475 234.24 283.225 234.629 283.22 235.612C283.199 238.828 283.167 238.828 286.366 238.828C287.804 238.828 289.237 238.855 290.674 238.828C291.404 238.813 291.649 239.086 291.701 239.837C291.972 244.063 291.992 244.063 287.825 244.063V244.052Z" fill="black"/>
<path d="M275.557 242.407C275.567 243.621 275.275 243.974 273.994 244.116C271.243 244.42 269.623 243.48 268.414 240.904C266.903 237.693 264.924 234.703 263.147 231.618C263.054 231.623 262.96 231.628 262.866 231.633V237.357C262.866 239.196 262.835 241.036 262.882 242.87C262.902 243.748 262.59 244.1 261.72 244.063C260.574 244.016 259.417 244 258.271 244.047C257.479 244.084 257.167 243.842 257.172 242.996C257.198 235.502 257.198 228.007 257.177 220.513C257.172 219.693 257.453 219.346 258.256 219.44C258.308 219.44 258.355 219.44 258.401 219.44C262.418 219.351 262.387 219.367 264.465 222.888C266.179 225.789 267.872 228.701 269.477 231.807C269.998 231.271 269.8 230.724 269.805 230.246C269.81 227.056 269.821 223.866 269.764 220.676C269.743 219.735 270.024 219.341 270.983 219.44C272.441 219.588 274.285 218.81 275.265 219.782C276.114 220.633 275.515 222.452 275.525 223.845C275.546 230.031 275.504 236.222 275.557 242.407Z" fill="black"/>
<path d="M256.151 231.733C256.151 230.33 256.234 228.922 256.141 227.529C255.786 222.589 253.03 219.735 248.165 219.241C246.586 219.078 245.008 219.136 243.445 219.483C239.923 220.266 237.631 222.557 237.152 226.152C236.641 229.946 236.631 233.773 237.198 237.567C237.579 240.1 238.923 242.108 241.262 243.201C244.351 244.641 247.597 244.662 250.801 243.611C253.697 242.66 255.317 240.505 255.917 237.515C256.302 235.602 256.193 233.662 256.151 231.733ZM249.853 236.248C249.629 238.024 248.29 238.928 246.451 238.881C244.539 238.834 243.361 237.846 243.189 235.933C243.07 234.545 243.169 233.142 243.169 231.744C243.169 230.346 243.064 228.843 243.195 227.408C243.361 225.621 244.607 224.617 246.414 224.575C248.253 224.533 249.623 225.432 249.847 227.166C250.238 230.183 250.228 233.231 249.853 236.248Z" fill="black"/>
<path d="M378.06 134.468C376.023 152.7 368.329 168.23 355.19 180.864C343.244 192.353 328.981 199.149 312.56 201.246C310.372 201.524 308.179 201.656 305.975 201.792C304.542 201.876 304.475 201.183 304.475 200.074C304.501 184.407 304.49 168.745 304.496 153.083V142.929C304.49 123.883 304.506 104.837 304.459 85.7853C304.454 84.3505 304.902 84.0352 306.246 84.0404C325.605 84.0825 344.964 84.0825 364.322 84.0352C365.682 84.0352 366.469 84.4241 367.188 85.6118C376.315 100.664 380.019 116.956 378.06 134.468Z" fill="black"/>
<path d="M298.932 201.698C285.158 200.746 272.467 196.568 261.048 188.643C247.987 179.582 238.6 167.589 232.963 152.647C228.581 141.037 227.258 129.039 228.696 116.714C230.025 105.341 233.801 94.8512 239.829 85.1599C240.319 84.3715 240.819 84.0457 241.762 84.0457C261.126 84.0772 280.49 84.0825 299.854 84.0352C301.099 84.0352 301.219 84.5187 301.219 85.5488C301.198 104.648 301.203 123.746 301.203 142.845H301.208C301.208 161.755 301.214 180.659 301.203 199.564C301.203 201.892 301.604 201.882 298.932 201.698Z" fill="black"/>
<path d="M363.708 80.3037C363.645 80.4404 363.583 80.5718 363.525 80.7084H242.762C257.052 62.2507 275.348 51.5871 298.28 50.1681C325.261 48.5021 346.954 59.192 363.708 80.3037Z" fill="black"/>
</g>
<defs>
<clipPath id="clip0_189_5477">
<rect width="150.432" height="205" fill="white" transform="translate(228.139 50)"/>
</clipPath>
</defs>
</svg>
