<svg width="390" height="46" viewBox="0 0 390 46" fill="none" xmlns="http://www.w3.org/2000/svg">
<mask id="mask0_326_3601" style="mask-type:alpha" maskUnits="userSpaceOnUse" x="-176" y="-46" width="1882" height="1080">
<g style="mix-blend-mode:soft-light">
<path d="M-175.373 58.3561C-156.108 44.9361 -136.863 31.4761 -117.569 18.1061C-109.004 12.1761 -109.494 13.6561 -114.119 4.36607C-120.43 -8.32393 -126.711 -21.0239 -132.885 -33.7839C-134.58 -37.2839 -135.824 -41.0139 -137.451 -45.0839H-82.4295C-78.5589 -33.4639 -74.5413 -21.4139 -70.2298 -8.47393C-62.4004 -15.2939 -55.2765 -21.5139 -48.1429 -27.7139C-46.2811 -29.3339 -44.0861 -30.6539 -42.577 -32.5539C-33.2974 -44.2139 -21.323 -46.8039 -7.11447 -45.8039C8.8089 -44.6839 24.8694 -45.1339 40.8418 -45.7339C48.4164 -46.0239 54.482 -43.8539 60.6554 -39.7239C100.567 -12.9939 140.625 13.4961 180.624 40.0761C218.331 65.1361 256.008 90.2361 293.744 115.266C315.537 129.716 337.399 144.046 359.221 158.446C360.671 159.406 362.033 160.496 364.091 162.016C354.429 167.956 345.463 173.496 336.477 178.986C311.539 194.226 286.581 209.436 261.643 224.676C247.16 233.526 232.687 242.396 218.233 251.296C215.607 252.916 213.461 253.316 210.394 251.446C196.861 243.206 183.123 235.326 169.346 227.536C168.052 226.806 165.593 226.976 164.26 227.766C148.827 236.906 133.491 246.236 118.156 255.566C116.794 256.396 115.618 257.536 113.942 258.866C120.312 266.226 126.377 273.346 132.551 280.346C152.462 302.946 172.413 325.496 192.334 348.086C204.103 361.426 215.715 374.906 227.699 388.036C229.384 389.886 232.755 390.986 235.342 390.986C284.954 391.026 334.576 390.856 384.189 390.726C385.943 390.726 387.687 390.726 390.382 390.726C388.157 396.386 386.315 401.256 384.346 406.066C375.938 426.546 367.501 447.006 359.045 467.466C357.741 470.606 356.252 471.846 352.313 470.236C337.908 464.386 323.249 459.176 308.688 453.716C291.441 447.246 274.176 440.806 256.949 434.296C242.77 428.946 228.551 423.686 214.509 417.996C211.05 416.596 207.856 414.016 205.102 411.366C175.764 383.096 146.563 354.676 117.284 326.346C90.4836 300.416 63.6147 274.556 36.2461 248.156C39.6365 246.016 42.684 243.986 45.8197 242.126C67.3089 229.406 88.8275 216.736 110.336 204.036C119.587 198.576 128.739 192.916 138.156 187.756C140.096 186.696 143.388 186.606 145.397 187.536C159.243 193.976 172.873 200.886 186.661 207.466C194.706 211.296 202.966 214.656 210.992 218.506C213.569 219.746 215.431 219.496 217.635 217.886C238.125 202.906 258.654 187.996 279.173 173.066C283.044 170.256 286.944 167.496 292.245 162.716C290.893 162.146 289.433 161.756 288.198 160.986C272.284 151.046 256.4 141.066 240.516 131.056C235.901 128.146 235.332 128.746 233.823 133.916C231.099 143.276 227.679 152.426 224.583 161.666C222.447 168.026 220.232 174.376 218.262 180.786C216.989 184.936 214.803 186.116 210.962 183.966C196.793 176.026 182.692 167.976 168.523 160.036C166.298 158.786 165.828 157.846 167.621 155.556C178.371 141.806 188.914 127.886 199.635 114.106C201.888 111.206 202.319 108.796 198.811 106.926C182.741 98.3261 166.622 89.8061 149.826 80.8761C146.132 87.7761 142.487 94.5361 138.9 101.326C133.658 111.236 128.455 121.166 123.242 131.086C121.546 134.306 119.939 137.566 118.176 140.746C116.892 143.056 115.432 143.876 112.668 142.266C81.1353 123.816 49.5139 105.506 17.922 87.1561C-4.47855 74.1461 -26.8791 61.1261 -49.2796 48.0861C-49.5147 47.9461 -49.6127 47.5661 -50.0733 46.8061C-42.9004 40.5261 -35.6687 34.1861 -28.4175 27.8661C-23.0868 23.2261 -17.619 18.7561 -12.4255 13.9661C-9.25066 11.0461 -6.7617 10.5661 -3.18507 13.6561C27.9071 40.5561 59.1464 67.2761 90.3464 94.0461C90.9441 94.5661 91.63 94.9761 92.8549 95.8461C101.635 83.9861 110.297 72.2761 119.43 59.9461C111.453 54.5961 103.928 49.4961 96.3629 44.4661C75.2951 30.4661 54.2174 16.4761 33.1202 2.50607C21.0184 -5.51394 8.9265 -13.5639 -3.33205 -21.3239C-4.57652 -22.1139 -7.46724 -21.7239 -8.7117 -20.7339C-22.8419 -9.55393 -36.8054 1.83607 -50.8082 13.1761C-65.3303 24.9361 -79.8622 36.6861 -94.3451 48.4961C-95.3936 49.3561 -96.0305 50.7361 -96.8635 51.8761C-95.6288 52.6961 -94.4529 53.6261 -93.1496 54.3161C-82.4099 60.0361 -71.6702 65.7861 -60.8717 71.3861C-53.7185 75.0861 -46.4084 78.4561 -39.2552 82.1661C-21.2152 91.5161 -3.24387 100.986 14.7765 110.346C18.2453 112.146 21.8612 113.656 25.3692 115.376C29.2888 117.296 29.4456 118.496 25.82 120.896C17.6378 126.326 9.33804 131.576 1.11668 136.946C-16.3745 148.376 -33.8461 159.856 -51.3373 171.296C-68.4464 182.496 -85.5456 193.696 -102.684 204.856C-119.656 215.906 -136.657 226.896 -153.639 237.926C-158.842 241.306 -159.508 241.086 -161.262 235.226C-164.398 224.716 -167.485 214.196 -170.709 203.706C-172.1 199.166 -172.218 196.306 -166.818 193.626C-143.918 182.276 -121.4 170.116 -98.6763 158.376C-81.1459 149.316 -63.5273 140.446 -45.9675 131.436C-45.1836 131.036 -44.6152 130.186 -43.3022 128.926C-48.0645 127.336 -52.18 125.856 -56.3544 124.576C-72.7285 119.556 -89.1125 114.586 -105.496 109.616C-122.527 104.456 -139.567 99.3461 -156.598 94.1761C-162.879 92.2661 -169.121 90.2461 -175.383 88.2861C-175.383 78.2961 -175.383 68.3061 -175.383 58.3161L-175.373 58.3561Z" fill="white"/>
<path d="M729.124 330.676C698.169 272.646 667.743 215.616 636.788 157.566C633.309 160.996 630.066 164.046 626.979 167.256C620.306 174.206 620.139 174.386 614.378 166.826C603.177 152.116 592.202 137.226 581.169 122.376C580.522 121.516 580.15 120.446 578.817 117.846C582.805 117.846 585.706 118.016 588.567 117.776C590.213 117.636 591.781 116.716 593.417 116.336C599.258 114.976 605.068 113.366 610.987 112.486C615.73 111.786 615.994 109.796 613.878 106.186C607.293 94.916 600.737 83.626 594.162 72.356C592.114 68.846 589.988 65.376 587.969 61.836C586.186 58.716 584.775 57.426 580.316 58.636C576.348 59.706 571.987 62.096 566.882 60.046C564.167 58.956 560.003 61.666 556.485 62.636C555.417 62.926 554.221 63.536 553.261 63.286C549.626 62.336 546.343 63.416 542.825 64.196C534.927 65.936 526.853 66.836 518.935 68.496C515.662 69.186 512.772 67.146 509.038 68.896C504.717 70.926 505.55 72.476 507.5 74.946C516.231 86.046 525.128 97.006 533.84 108.116C549.959 128.656 565.951 149.296 582.08 169.836C592.829 183.526 603.795 197.036 614.554 210.716C632.457 233.466 650.242 256.316 668.125 279.076C675.308 288.216 682.51 297.336 689.898 306.306C692.084 308.956 691.701 310.376 689.036 312.186C676.513 320.686 664.078 329.316 651.623 337.916C650.83 338.466 650.065 339.066 649.36 339.726C647.214 341.716 645.548 341.126 644.274 338.736C638.444 327.836 632.849 316.786 626.763 306.036C620.179 294.406 612.937 283.166 606.342 271.546C596.681 254.536 587.342 237.326 577.837 220.226C575.691 216.356 573.516 212.506 571.193 208.746C569.625 206.206 567.705 206.466 565.432 208.146C555.476 215.486 545.422 222.706 535.417 229.976C531.615 232.736 527.862 235.566 524.05 238.306C522.081 239.726 521.718 241.146 523.315 243.246C535.741 259.556 548.185 275.846 560.454 292.276C574.26 310.756 587.852 329.396 601.619 347.906C604.755 352.116 608.322 355.996 611.614 360.106C615.132 364.506 614.995 365.596 610.076 369.056C604.098 373.276 598.013 377.336 591.948 381.426C584.148 386.686 576.318 391.916 567.901 397.556C566.157 394.386 564.628 391.586 563.08 388.786C554.153 372.656 545.304 356.476 536.279 340.406C523.737 318.076 511.047 295.836 498.455 273.546C495.888 269.006 493.281 264.476 491.008 259.776C489.254 256.146 487.382 256.186 484.639 258.576C469.205 272.026 453.86 285.576 438.123 298.656C435.752 300.626 431.528 300.826 428.138 300.876C422.16 300.976 416.183 300.086 410.196 300.056C393.391 299.946 376.497 299.106 359.8 300.506C351.617 301.196 347.169 298.366 342.789 292.666C340.221 289.326 337.281 286.296 334.234 282.796C347.864 275.156 360.76 267.876 373.704 260.686C385.561 254.096 397.496 247.646 409.363 241.066C432.087 228.476 454.801 215.876 477.476 203.206C492.4 194.876 507.235 186.376 522.14 178.016C527.578 174.966 533.124 172.126 538.602 169.166C541.669 167.506 541.522 165.446 539.082 163.376C520.454 147.576 501.816 131.786 483.159 116.036C463.64 99.556 444.071 83.126 424.561 66.636C420.005 62.776 415.575 58.756 410.343 54.146C413.233 53.036 415.203 52.066 417.29 51.516C423.728 49.816 430.156 48.066 436.663 46.736C445.247 44.976 453.958 43.876 462.503 41.956C468.137 40.686 473.497 38.196 479.102 36.756C483.943 35.516 489.009 35.236 493.869 34.076C499.249 32.796 504.462 30.816 509.842 29.496C515.094 28.216 520.484 27.576 525.746 26.326C530.998 25.076 536.162 23.436 541.365 21.946C546.069 20.596 550.713 18.296 555.466 18.066C562.835 17.706 569.273 14.616 576.142 12.806C581.198 11.476 586.431 10.916 591.556 9.83602C595.083 9.09602 598.552 8.07602 602.041 7.14602C611.183 4.70602 620.316 2.19602 629.488 -0.143977C630.35 -0.363977 632.084 0.116021 632.339 0.736021C635.132 7.49602 637.709 14.356 640.335 21.186C642.491 26.816 644.627 32.456 646.763 38.096C650.663 48.396 654.504 58.716 658.483 68.986C663.088 80.886 667.88 92.706 672.466 104.616C674.612 110.206 676.307 115.976 678.473 121.556C680.521 126.856 683.029 131.966 685.136 137.236C686.949 141.786 688.389 146.496 690.173 151.066C693.632 159.946 697.238 168.756 700.726 177.616C704.558 187.326 708.311 197.076 712.122 206.796C717.012 219.256 722.01 231.676 726.801 244.166C729.614 251.496 731.946 259.026 734.837 266.336C737.188 272.296 740.167 277.986 742.637 283.906C744.606 288.626 746.213 293.496 748.016 298.286C751.897 308.596 755.738 318.916 759.706 329.186C762.48 336.356 765.615 343.386 768.104 350.656C768.526 351.896 766.928 354.656 765.527 355.646C744.91 370.216 724.126 384.536 703.48 399.046C686.028 411.306 668.733 423.786 651.31 436.086C629.154 451.716 606.891 467.196 584.804 482.916C580.365 486.076 577.298 482.266 574.104 481.116C559.199 475.736 544.52 469.676 529.793 463.776C518.191 459.126 506.608 454.396 495.065 449.566C492.674 448.566 491.224 447.436 492.449 443.706C496.202 432.306 499.171 420.626 502.326 409.026C504.462 401.156 506.432 393.246 508.431 385.336C509.146 382.496 509.567 379.566 510.538 376.836C510.724 376.316 513.458 375.916 513.957 376.466C521.326 384.566 528.509 392.846 535.76 401.056C546.167 412.846 556.554 424.656 567.019 436.386C569.116 438.736 571.301 438.316 573.917 436.526C590.145 425.446 606.528 414.626 622.795 403.606C647.694 386.726 672.525 369.746 697.404 352.836C706.762 346.476 716.179 340.186 725.518 333.796C727.066 332.736 728.389 331.336 729.182 330.656L729.124 330.676Z" fill="white"/>
<path d="M418.937 -44.394C385.356 -18.894 351.775 6.616 317.243 32.846C377.634 77.006 437.261 120.596 497.799 164.856C490.323 169.006 483.885 172.636 477.398 176.196C439.388 196.996 401.387 217.806 363.357 238.566C334.725 254.196 306.063 269.796 277.332 285.236C275.343 286.306 272.197 286.936 270.306 286.086C257.401 280.326 244.682 274.116 231.914 268.026C231.551 267.846 231.335 267.326 230.532 266.286C292.599 231.436 354.45 196.726 417.634 161.256C309.051 92.406 201.311 24.086 92.4053 -44.964C94.7864 -45.264 95.9329 -45.524 97.0696 -45.524C126.114 -45.544 155.168 -45.644 184.212 -45.374C186.907 -45.354 189.886 -43.454 192.208 -41.704C200.449 -35.504 208.543 -29.104 216.51 -22.544C219.616 -19.984 221.977 -19.094 225.779 -21.704C237.078 -29.464 248.709 -36.724 260.242 -44.134C261.262 -44.784 262.506 -45.474 263.643 -45.474C281.594 -45.554 299.546 -45.524 317.498 -45.494C317.91 -45.494 318.331 -45.214 319.644 -44.744C298.87 -29.324 278.635 -14.314 257.518 1.35601C260.095 2.91601 261.898 4.046 263.741 5.126C268.023 7.626 272.217 10.336 276.685 12.426C278.184 13.126 280.918 12.896 282.241 11.906C300.193 -1.494 318.017 -15.074 335.842 -28.654C342.848 -33.984 349.766 -39.434 356.763 -44.774C357.35 -45.224 358.213 -45.504 358.958 -45.504C378.82 -45.544 398.673 -45.534 418.535 -45.534C418.673 -45.154 418.81 -44.764 418.937 -44.384V-44.394Z" fill="white"/>
<path d="M371.941 16.426C386.551 6.59595 400.76 -2.93404 414.929 -12.524C430.852 -23.314 446.717 -34.184 462.66 -44.944C463.503 -45.514 464.816 -45.514 465.913 -45.514C486.285 -45.544 506.657 -45.534 527.382 -45.534C530.312 -35.504 535.604 -26.194 535.927 -15.194C522.052 -10.534 508.5 -5.98405 494.948 -1.42405C474.605 5.42595 454.282 12.296 433.939 19.116C421.044 23.436 408.148 27.736 395.213 31.916C394.155 32.256 392.548 32.016 391.617 31.396C385.267 27.136 379.016 22.716 372.774 18.276C372.333 17.966 372.245 17.146 371.941 16.436V16.426Z" fill="white"/>
</g>
</mask>
<g mask="url(#mask0_326_3601)">
<rect x="-118" width="812" height="46" fill="#D9D9D9" fill-opacity="0.43"/>
</g>
</svg>
